<?xml version="1.0" standalone="no"?>
<!DOCTYPE svg PUBLIC "-//W3C//DTD SVG 20010904//EN"
 "http://www.w3.org/TR/2001/REC-SVG-20010904/DTD/svg10.dtd">
<svg version="1.0" xmlns="http://www.w3.org/2000/svg"
 width="558.000000pt" height="545.000000pt" viewBox="0 0 558.000000 545.000000"
 preserveAspectRatio="xMidYMid meet">

<g transform="translate(0.000000,545.000000) scale(0.100000,-0.100000)"
fill="#000000" stroke="none">
<path d="M4246 4156 c5 -12 -5 -30 -32 -57 -21 -21 -34 -39 -29 -38 6 0 27 20
48 44 33 37 35 44 22 55 -13 11 -14 10 -9 -4z"/>
<path d="M3805 4140 c-3 -5 1 -10 9 -10 8 0 18 5 21 10 3 6 -1 10 -9 10 -8 0
-18 -4 -21 -10z"/>
<path d="M3735 4078 l-50 -53 53 50 c28 27 52 51 52 52 0 8 -9 -1 -55 -49z"/>
<path d="M3895 4080 c27 -27 51 -50 54 -50 3 0 -17 23 -44 50 -27 28 -51 50
-54 50 -3 0 17 -22 44 -50z"/>
<path d="M4065 4090 c-3 -5 1 -10 10 -10 9 0 13 5 10 10 -3 6 -8 10 -10 10 -2
0 -7 -4 -10 -10z"/>
<path d="M4157 4043 c-4 -3 -7 -13 -7 -22 1 -13 3 -13 11 2 11 19 8 33 -4 20z"/>
<path d="M3960 4016 c0 -2 8 -10 18 -17 15 -13 16 -12 3 4 -13 16 -21 21 -21
13z"/>
<path d="M3640 3995 c-8 -9 -8 -15 -2 -15 12 0 26 19 19 26 -2 2 -10 -2 -17
-11z"/>
<path d="M4160 3986 c0 -8 -12 -24 -27 -35 -14 -12 -24 -23 -21 -26 2 -3 19
10 37 29 20 21 29 36 22 40 -6 4 -11 0 -11 -8z"/>
<path d="M4385 3955 c-16 -14 -25 -25 -19 -25 6 0 17 7 24 15 7 8 19 15 26 15
8 0 14 5 14 10 0 16 -12 11 -45 -15z"/>
<path d="M3584 3939 c-19 -22 -19 -22 4 -10 12 6 22 16 22 21 0 15 -5 12 -26
-11z"/>
<path d="M4324 3898 l-19 -21 28 18 c28 18 33 25 19 25 -5 0 -17 -10 -28 -22z"/>
<path d="M4386 3869 c-26 -29 -44 -55 -40 -58 4 -3 9 0 12 8 3 8 23 34 45 58
22 24 37 43 34 43 -3 0 -26 -23 -51 -51z"/>
<path d="M3470 3823 l-85 -88 81 75 c68 63 102 100 91 100 -1 0 -41 -39 -87
-87z"/>
<path d="M4074 3895 c8 -8 17 -15 20 -15 3 0 6 7 6 15 0 9 -9 15 -21 15 -18 0
-19 -2 -5 -15z"/>
<path d="M4258 3883 c7 -3 16 -2 19 1 4 3 -2 6 -13 5 -11 0 -14 -3 -6 -6z"/>
<path d="M4120 3845 c22 -24 30 -29 30 -22 0 8 -38 47 -45 47 -5 0 2 -11 15
-25z"/>
<path d="M4217 3853 c-4 -3 -7 -11 -7 -17 0 -6 5 -5 12 2 6 6 9 14 7 17 -3 3
-9 2 -12 -2z"/>
<path d="M4160 3812 c0 -5 5 -13 12 -20 16 -16 29 -15 22 2 -6 16 -34 30 -34
18z"/>
<path d="M4336 3751 l-30 -36 34 32 c19 18 32 34 29 36 -2 2 -17 -12 -33 -32z"/>
<path d="M4240 3726 c24 -25 45 -46 47 -46 2 0 3 7 3 15 0 8 -6 15 -14 15 -7
0 -22 11 -32 25 -10 13 -25 27 -34 30 -8 4 5 -14 30 -39z"/>
<path d="M4615 3760 c-3 -5 -2 -10 4 -10 5 0 13 5 16 10 3 6 2 10 -4 10 -5 0
-13 -4 -16 -10z"/>
<path d="M3490 3735 c-26 -31 13 -82 44 -56 19 16 21 42 4 59 -16 16 -33 15
-48 -3z"/>
<path d="M4552 3709 c-19 -17 -32 -32 -30 -35 3 -2 20 12 38 31 42 43 37 45
-8 4z"/>
<path d="M4650 3730 c0 -5 5 -10 11 -10 5 0 7 5 4 10 -3 6 -8 10 -11 10 -2 0
-4 -4 -4 -10z"/>
<path d="M3386 3687 c3 -10 9 -15 12 -12 3 3 0 11 -7 18 -10 9 -11 8 -5 -6z"/>
<path d="M4609 3678 c-12 -23 -12 -23 10 -4 23 21 26 26 11 26 -5 0 -15 -10
-21 -22z"/>
<path d="M3890 3682 c0 -12 19 -26 26 -19 2 2 -2 10 -11 17 -9 8 -15 8 -15 2z"/>
<path d="M3980 3679 c0 -5 5 -7 10 -4 6 3 10 8 10 11 0 2 -4 4 -10 4 -5 0 -10
-5 -10 -11z"/>
<path d="M4434 3648 l-29 -33 35 30 c19 17 37 31 39 33 2 1 0 2 -5 2 -6 0 -23
-15 -40 -32z"/>
<path d="M3410 3661 c0 -4 9 -16 20 -26 11 -10 20 -14 20 -9 0 5 -9 17 -20 27
-11 9 -20 13 -20 8z"/>
<path d="M3843 3646 l-21 -24 24 -23 c26 -24 31 -20 12 11 -10 15 -9 23 6 39
11 12 15 21 9 21 -5 0 -19 -11 -30 -24z"/>
<path d="M4490 3659 c0 -5 5 -7 10 -4 6 3 10 8 10 11 0 2 -4 4 -10 4 -5 0 -10
-5 -10 -11z"/>
<path d="M3925 3650 c-4 -6 -2 -10 4 -10 5 0 11 -7 13 -15 2 -9 8 -11 15 -7 9
6 8 12 -7 25 -11 9 -22 12 -25 7z"/>
<path d="M4338 3618 c33 -33 45 -39 54 -30 9 9 8 12 -5 12 -9 0 -29 14 -44 30
-14 17 -31 30 -36 30 -6 0 9 -19 31 -42z"/>
<path d="M4010 3639 c0 -5 5 -7 10 -4 6 3 10 8 10 11 0 2 -4 4 -10 4 -5 0 -10
-5 -10 -11z"/>
<path d="M4560 3625 c-13 -14 -19 -25 -14 -25 8 1 50 50 41 50 -2 0 -14 -11
-27 -25z"/>
<path d="M3460 3601 c0 -5 7 -12 16 -15 24 -9 28 -7 14 9 -14 17 -30 20 -30 6z"/>
<path d="M3972 3599 c2 -7 10 -15 17 -17 8 -3 12 1 9 9 -2 7 -10 15 -17 17 -8
3 -12 -1 -9 -9z"/>
<path d="M4557 3570 c-3 -11 -2 -20 3 -20 12 0 21 28 11 35 -5 2 -11 -4 -14
-15z"/>
<path d="M3960 3570 c0 -5 -9 -14 -19 -20 -15 -7 -23 -6 -35 5 -23 23 -28 18
-10 -10 20 -31 34 -31 62 -2 24 25 28 37 12 37 -5 0 -10 -4 -10 -10z"/>
<path d="M3500 3555 c0 -9 9 -15 21 -15 18 0 19 2 9 15 -7 8 -16 15 -21 15 -5
0 -9 -7 -9 -15z"/>
<path d="M4440 3515 c47 -48 60 -54 60 -30 0 8 -7 15 -16 15 -8 0 -27 14 -41
30 -13 17 -30 30 -36 30 -6 0 9 -20 33 -45z"/>
<path d="M4525 3530 c-3 -5 -1 -10 4 -10 6 0 11 5 11 10 0 6 -2 10 -4 10 -3 0
-8 -4 -11 -10z"/>
<path d="M3575 3489 l40 -40 -47 -45 c-26 -24 -43 -44 -39 -44 4 0 22 16 41
35 19 19 40 35 47 35 7 0 13 3 13 8 0 11 -76 92 -86 92 -4 0 10 -18 31 -41z"/>
<path d="M3445 3490 c-10 -11 -16 -22 -14 -24 2 -2 12 7 22 20 22 29 17 32 -8
4z"/>
<path d="M4045 3470 c3 -5 8 -10 11 -10 2 0 4 5 4 10 0 6 -5 10 -11 10 -5 0
-7 -4 -4 -10z"/>
<path d="M4540 3412 c24 -28 46 -50 49 -47 3 3 -17 27 -44 53 l-48 47 43 -53z"/>
<path d="M3431 3434 c0 -11 3 -14 6 -6 3 7 2 16 -1 19 -3 4 -6 -2 -5 -13z"/>
<path d="M3379 3373 l-34 -38 38 34 c20 19 37 36 37 38 0 8 -8 0 -41 -34z"/>
<path d="M3683 3382 c10 -10 17 -24 17 -30 0 -7 4 -12 9 -12 14 0 91 -83 91
-97 0 -7 10 -13 22 -13 17 0 7 14 -53 75 -41 42 -75 80 -77 85 -2 6 -8 10 -14
10 -6 0 -4 -8 5 -18z"/>
<path d="M3480 3380 c-9 -6 -10 -10 -3 -10 6 0 15 5 18 10 8 12 4 12 -15 0z"/>
<path d="M3424 3328 l-19 -23 23 19 c21 18 27 26 19 26 -2 0 -12 -10 -23 -22z"/>
<path d="M3654 3298 l-19 -23 23 19 c12 11 22 21 22 23 0 8 -8 2 -26 -19z"/>
<path d="M3376 3294 c-11 -7 -18 -16 -15 -18 2 -2 13 2 23 10 11 7 18 16 15
18 -2 2 -13 -2 -23 -10z"/>
<path d="M4565 3290 c-3 -5 -2 -10 4 -10 5 0 13 5 16 10 3 6 2 10 -4 10 -5 0
-13 -4 -16 -10z"/>
<path d="M3624 3241 c1 -22 4 -27 14 -19 8 7 9 14 2 23 -5 6 -7 15 -3 18 3 4
2 7 -4 7 -6 0 -10 -13 -9 -29z"/>
<path d="M4504 3229 c-19 -22 -19 -22 4 -8 12 8 22 17 22 21 0 12 -6 9 -26
-13z"/>
<path d="M3569 3163 l-34 -38 38 34 c34 33 42 41 34 41 -2 0 -19 -17 -38 -37z"/>
<path d="M4435 3160 c-21 -22 -35 -40 -30 -40 9 0 81 80 73 80 -2 0 -22 -18
-43 -40z"/>
<path d="M3675 3180 c-3 -5 3 -10 15 -10 12 0 18 5 15 10 -3 6 -10 10 -15 10
-5 0 -12 -4 -15 -10z"/>
<path d="M3890 3165 c14 -15 46 -48 73 -73 26 -25 47 -51 47 -58 0 -8 8 -14
17 -14 10 0 -13 30 -63 83 -74 77 -129 123 -74 62z"/>
<path d="M1910 3157 c-18 -9 -26 -22 -28 -46 -2 -22 0 -31 7 -26 6 3 11 17 11
30 0 17 8 26 30 33 18 7 32 7 35 1 4 -5 1 -9 -4 -9 -6 0 -11 -5 -11 -11 0 -5
5 -7 10 -4 15 9 121 9 145 -1 16 -6 15 -3 -5 13 l-25 21 30 -5 c17 -3 40 -16
53 -29 21 -22 22 -31 22 -169 0 -90 -4 -145 -10 -145 -5 0 -10 -6 -10 -13 0
-21 -58 -41 -83 -29 -21 10 -21 11 5 11 15 1 29 4 31 9 3 4 -35 7 -83 7 -48 0
-86 -3 -83 -7 2 -5 15 -8 29 -8 13 0 24 -4 24 -10 0 -23 -98 7 -101 31 -1 5
-2 13 -3 18 -3 25 -16 20 -16 -6 0 -46 21 -57 124 -61 175 -8 190 8 193 193 2
127 -11 188 -44 212 -23 17 -209 17 -243 0z"/>
<path d="M2323 3146 l-27 -24 0 -155 c0 -131 3 -159 18 -182 12 -18 24 -25 37
-22 10 3 19 1 19 -4 0 -12 147 -11 193 2 42 11 54 29 38 56 -10 16 -10 16 -11
-4 0 -27 -66 -61 -84 -43 -7 7 -5 10 6 10 9 0 20 5 24 11 5 9 -1 10 -22 4 -16
-5 -41 -8 -56 -7 -16 1 -28 -3 -28 -8 0 -6 -5 -10 -11 -10 -5 0 -8 4 -5 9 7
11 -24 24 -33 15 -3 -4 0 -9 7 -11 6 -3 12 -8 12 -13 0 -10 -60 10 -76 26 -8
7 -12 64 -12 173 0 139 2 162 14 157 8 -3 12 -1 9 4 -7 11 38 24 57 17 7 -3 2
-6 -11 -6 -13 -1 -22 -4 -18 -7 9 -9 177 -11 177 -2 0 4 -10 9 -22 11 -15 3
-11 5 13 6 42 1 59 -13 60 -53 1 -30 1 -30 9 -6 13 42 11 49 -20 65 -20 10
-59 15 -129 15 -91 0 -102 -2 -128 -24z"/>
<path d="M2837 3152 c-23 -26 -21 -39 2 -18 14 12 32 17 62 15 27 -2 44 1 47
9 7 21 -92 16 -111 -6z"/>
<path d="M3216 3108 c-55 -54 -59 -60 -44 -75 15 -14 20 -12 57 26 53 54 53
71 0 19 -58 -57 -62 -37 -5 21 35 35 58 50 82 53 19 2 38 2 43 -1 5 -4 9 -91
10 -194 1 -129 -1 -187 -9 -182 -6 4 -10 69 -11 173 0 97 -4 159 -9 147 -4
-11 -8 -93 -9 -182 l-2 -163 31 0 30 0 0 210 0 210 -52 -1 c-50 -2 -56 -5
-112 -61z"/>
<path d="M3626 3134 c-15 -14 -26 -27 -24 -29 2 -3 17 9 33 25 35 36 30 39 -9
4z"/>
<path d="M2855 3130 c3 -5 11 -10 16 -10 6 0 7 5 4 10 -3 6 -11 10 -16 10 -6
0 -7 -4 -4 -10z"/>
<path d="M2932 2950 c-2 -229 -20 -233 -25 -5 l-3 160 -2 -177 -2 -178 23 0
c22 0 22 0 19 147 -4 233 -8 255 -10 53z"/>
<path d="M2765 3080 c-24 -25 -26 -32 -15 -45 12 -14 17 -12 52 22 21 20 38
40 38 43 0 3 -11 7 -23 8 -15 1 -34 -10 -52 -28z m45 13 c-1 -18 -21 -38 -40
-39 -20 -1 -20 -1 2 21 24 24 38 30 38 18z"/>
<path d="M4359 3084 c-23 -25 -23 -26 -2 -13 13 7 25 19 27 26 8 19 2 16 -25
-13z"/>
<path d="M1915 3089 c-4 -6 -5 -12 -2 -15 2 -3 7 2 10 11 7 17 1 20 -8 4z"/>
<path d="M2145 2959 c0 -76 3 -131 7 -121 9 23 10 250 1 255 -5 3 -8 -57 -8
-134z"/>
<path d="M2337 3093 c-10 -9 -9 -273 1 -273 4 0 7 63 7 140 0 77 0 140 -1 140
0 0 -4 -3 -7 -7z"/>
<path d="M3566 3091 c-12 -5 -15 -10 -9 -14 6 -4 16 0 23 8 14 17 13 17 -14 6z"/>
<path d="M3855 3090 c-3 -5 -1 -10 4 -10 6 0 11 5 11 10 0 6 -2 10 -4 10 -3 0
-8 -4 -11 -10z"/>
<path d="M2614 2960 c0 -63 1 -89 3 -57 2 31 2 83 0 115 -2 31 -3 5 -3 -58z"/>
<path d="M1872 2960 c1 -58 4 -97 6 -87 2 9 10 17 18 17 8 0 14 8 14 18 0 14
-2 15 -10 2 -10 -15 -10 -13 -15 98 -1 23 -5 45 -9 49 -4 4 -6 -40 -4 -97z"/>
<path d="M2570 2976 c0 -47 5 -88 10 -91 6 -4 10 27 10 84 0 54 -4 91 -10 91
-6 0 -10 -35 -10 -84z"/>
<path d="M1897 3014 c-3 -19 -2 -45 3 -57 7 -17 9 -8 9 36 1 65 -4 73 -12 21z"/>
<path d="M4299 3023 l-24 -28 28 24 c25 23 32 31 24 31 -2 0 -14 -12 -28 -27z"/>
<path d="M4079 2975 c34 -39 70 -70 75 -64 1 2 -23 27 -53 54 -51 46 -53 47
-22 10z"/>
<path d="M3771 2949 c-24 -28 -42 -52 -40 -53 6 -5 92 94 87 99 -2 2 -23 -18
-47 -46z"/>
<path d="M3970 2990 c-8 -5 -12 -12 -9 -15 4 -3 12 1 19 10 14 17 11 19 -10 5z"/>
<path d="M4250 2985 c-8 -9 -8 -15 -2 -15 12 0 26 19 19 26 -2 2 -10 -2 -17
-11z"/>
<path d="M3885 2970 c-3 -5 -1 -10 4 -10 6 0 11 5 11 10 0 6 -2 10 -4 10 -3 0
-8 -4 -11 -10z"/>
<path d="M3925 2950 c-3 -5 -1 -10 4 -10 6 0 11 5 11 10 0 6 -2 10 -4 10 -3 0
-8 -4 -11 -10z"/>
<path d="M4199 2933 c-18 -20 -19 -23 -4 -13 32 24 47 40 37 40 -4 0 -19 -12
-33 -27z"/>
<path d="M3839 2930 c-13 -10 -19 -19 -13 -20 6 0 19 9 29 20 23 26 14 26 -16
0z"/>
<path d="M3783 2886 c-13 -6 -23 -14 -23 -18 0 -14 17 -8 35 12 20 22 20 22
-12 6z"/>
<path d="M1901 2873 c0 -4 4 -17 9 -28 8 -19 9 -19 9 2 1 12 -3 25 -9 28 -5 3
-10 3 -9 -2z"/>
<path d="M2561 2834 c0 -11 3 -14 6 -6 3 7 2 16 -1 19 -3 4 -6 -2 -5 -13z"/>
<path d="M1948 2577 c-57 -53 -65 -64 -52 -75 8 -7 20 -10 27 -6 20 12 87 78
87 87 0 13 -49 -27 -55 -44 -5 -15 -45 -35 -45 -22 0 2 20 24 45 48 30 31 50
43 62 39 15 -5 15 -4 4 4 -12 9 -10 12 11 17 15 4 36 4 47 0 12 -4 21 -2 21 4
0 6 -19 11 -42 11 -39 -1 -50 -7 -110 -63z"/>
<path d="M2423 2622 c-103 -89 -115 -104 -99 -120 15 -15 19 -13 56 23 28 27
38 45 34 57 -4 14 3 22 31 34 21 8 43 13 50 10 18 -7 22 -386 3 -386 -10 0
-12 35 -10 171 2 117 0 169 -8 164 -6 -4 -10 -71 -10 -184 l0 -178 28 5 27 4
0 209 0 209 -41 0 c-25 0 -49 -7 -61 -18z m-24 -59 c-27 -33 -51 -55 -56 -50
-7 8 21 47 34 47 7 0 13 5 13 10 0 6 5 10 11 10 8 0 7 -6 -2 -17z"/>
<path d="M2811 2590 c-30 -28 -50 -50 -44 -50 6 0 29 18 51 41 22 22 49 41 61
42 25 2 28 17 4 17 -10 -1 -42 -23 -72 -50z"/>
<path d="M2930 2623 c0 -10 5 -25 10 -33 7 -11 10 -7 10 18 0 17 -4 32 -10 32
-5 0 -10 -8 -10 -17z"/>
<path d="M3207 2633 c-20 -3 -33 -15 -47 -43 -38 -75 -22 -360 20 -360 6 0 10
5 10 10 0 6 -4 10 -9 10 -5 0 -12 19 -16 43 -11 60 -14 267 -4 261 5 -3 9 -59
9 -125 0 -83 4 -124 13 -133 10 -10 11 13 9 117 -3 97 -7 134 -18 145 -13 13
-13 17 1 32 9 10 30 21 48 25 44 11 147 12 147 2 0 -4 -27 -7 -60 -6 -80 3
-89 -8 -10 -13 34 -1 64 0 67 5 2 4 15 7 28 7 40 0 55 -52 54 -182 0 -60 2
-113 5 -116 8 -8 6 215 -2 263 -6 34 -12 42 -42 52 -34 11 -145 15 -203 6z"/>
<path d="M2821 2558 c-41 -41 -54 -49 -61 -38 -5 8 -12 11 -16 7 -4 -4 -1 -15
8 -24 15 -15 19 -14 48 13 31 30 84 94 77 94 -2 0 -28 -23 -56 -52z"/>
<path d="M3195 2579 c-11 -16 -1 -19 13 -3 7 8 8 14 3 14 -5 0 -13 -5 -16 -11z"/>
<path d="M2905 2569 c-4 -6 -5 -12 -2 -15 2 -3 7 2 10 11 7 17 1 20 -8 4z"/>
<path d="M2930 2398 c0 -201 -18 -223 -23 -28 l-3 125 -2 -137 -2 -138 25 0
25 0 0 175 c0 110 -4 175 -10 175 -6 0 -10 -64 -10 -172z"/>
<path d="M3408 2558 c8 -8 12 -50 12 -122 0 -128 13 -136 16 -8 1 88 -9 142
-29 142 -7 0 -7 -4 1 -12z"/>
<path d="M2052 2520 c0 -14 2 -19 5 -12 2 6 2 18 0 25 -3 6 -5 1 -5 -13z"/>
<path d="M2901 2514 c0 -11 3 -14 6 -6 3 7 2 16 -1 19 -3 4 -6 -2 -5 -13z"/>
<path d="M2054 2370 c0 -69 1 -97 3 -62 2 34 2 90 0 125 -2 34 -3 6 -3 -63z"/>
<path d="M3400 2292 c0 -6 -12 -18 -26 -25 -15 -8 -22 -17 -17 -20 12 -8 59
40 50 50 -4 3 -7 1 -7 -5z"/>
<path d="M3430 2260 c-9 -16 -8 -20 5 -20 8 0 15 9 15 20 0 11 -2 20 -5 20 -2
0 -9 -9 -15 -20z"/>
<path d="M3215 2260 c3 -5 16 -10 28 -9 21 0 21 1 2 9 -28 12 -37 12 -30 0z"/>
<path d="M2044 2228 c-3 -4 11 -8 30 -8 20 0 36 2 36 4 0 8 -61 12 -66 4z"/>
<path d="M3202 2224 c7 -7 189 -6 196 1 3 3 -41 5 -98 5 -57 0 -101 -3 -98 -6z"/>
<path d="M4073 1643 c9 -2 23 -2 30 0 6 3 -1 5 -18 5 -16 0 -22 -2 -12 -5z"/>
<path d="M1573 1403 c-33 -6 -83 -63 -83 -93 0 -47 83 -100 157 -100 20 0 32
-4 28 -10 -5 -9 15 -14 52 -13 7 0 11 -4 10 -11 -1 -6 8 -10 22 -8 22 2 23 0
18 -38 -3 -23 -1 -38 4 -34 5 3 9 1 9 -5 0 -5 -9 -11 -20 -13 -15 -2 -17 -7
-10 -18 14 -23 39 16 40 62 0 30 -6 42 -33 62 -19 15 -45 26 -58 26 -13 0 -37
7 -53 15 -15 8 -37 15 -47 15 -10 0 -21 5 -24 10 -3 6 -19 10 -35 10 -15 0
-30 7 -34 15 -3 8 -1 15 4 15 6 0 10 9 10 20 0 11 -4 20 -10 20 -5 0 -7 7 -4
15 4 8 9 13 13 10 4 -2 21 4 37 14 39 23 116 27 134 6 7 -9 21 -13 31 -10 9 3
21 0 25 -6 5 -8 3 -9 -6 -4 -13 8 -13 7 9 -37 15 -30 41 -38 41 -13 0 9 -6 12
-15 9 -18 -7 -20 12 -2 20 14 6 -35 52 -71 67 -23 9 -97 10 -139 2z"/>
<path d="M2253 1400 c-46 -19 -53 -46 -56 -213 -2 -144 -1 -157 16 -157 10 0
17 8 17 20 0 11 -4 20 -10 20 -6 0 -9 44 -7 114 1 63 5 112 10 109 4 -2 7 5 7
17 0 13 -4 19 -11 14 -7 -4 -10 -1 -7 7 3 8 10 13 16 12 6 -2 20 9 30 22 23
29 72 34 96 10 18 -18 37 -20 34 -3 -7 34 -81 49 -135 28z"/>
<path d="M2404 1364 c4 -10 2 -13 -6 -8 -8 5 -9 2 -5 -10 4 -10 7 -72 7 -138
0 -119 0 -120 29 -149 26 -25 37 -29 86 -29 49 0 60 4 86 29 16 16 29 34 29
40 0 16 -26 13 -40 -4 -11 -13 -10 -14 6 -9 19 7 19 7 1 -14 -16 -18 -29 -20
-85 -19 -52 2 -67 5 -68 17 0 8 -3 22 -6 30 -16 38 -26 213 -15 253 6 21 4 27
-9 27 -10 0 -14 -5 -10 -16z m31 -274 c3 -5 2 -10 -4 -10 -5 0 -13 5 -16 10
-3 6 -2 10 4 10 5 0 13 -4 16 -10z"/>
<path d="M1960 1280 c0 -5 -8 -10 -18 -10 -33 0 -64 -45 -68 -97 -3 -42 -2
-44 6 -18 8 26 9 25 5 -14 -5 -56 7 -79 50 -97 105 -43 205 14 205 117 0 49
-39 109 -71 109 -10 0 -19 5 -19 10 0 6 -20 10 -45 10 -25 0 -45 -4 -45 -10z
m100 -30 c0 -5 5 -10 11 -10 5 0 7 5 3 12 -4 7 -3 8 5 4 6 -4 9 -12 6 -17 -4
-5 -1 -9 4 -9 6 0 11 -7 11 -16 0 -8 4 -13 8 -10 5 3 8 -17 8 -45 -1 -30 -5
-49 -13 -49 -6 0 -15 -15 -19 -32 -4 -18 -9 -28 -11 -21 -3 9 -12 9 -29 3 -34
-13 -104 -10 -104 5 0 7 -9 20 -20 30 -22 20 -27 73 -10 106 8 13 7 19 0 19
-6 0 -8 5 -5 10 4 6 10 8 15 5 4 -3 13 2 20 10 14 17 120 21 120 5z m-130
-181 c0 -6 -4 -7 -10 -4 -5 3 -10 11 -10 16 0 6 5 7 10 4 6 -3 10 -11 10 -16z"/>
<path d="M2440 1280 c0 -6 33 -10 79 -10 44 0 86 -3 95 -6 11 -4 16 -1 16 10
0 14 -14 16 -95 16 -57 0 -95 -4 -95 -10z"/>
<path d="M2694 1269 c9 -13 16 -31 16 -41 0 -10 4 -18 9 -18 4 0 8 17 7 38 -1
31 -5 38 -25 40 -22 4 -23 3 -7 -19z"/>
<path d="M2799 1273 c34 -62 57 -120 53 -133 -4 -11 -1 -11 12 3 16 16 16 18
-3 39 -12 12 -22 29 -22 37 -1 9 -3 23 -4 31 -1 8 -3 21 -4 28 0 6 -10 12 -21
12 -16 0 -18 -3 -11 -17z"/>
<path d="M2907 1268 c-12 -45 11 -50 35 -8 17 30 17 30 -6 30 -16 0 -26 -7
-29 -22z"/>
<path d="M3020 1249 c0 -33 -3 -40 -15 -35 -20 7 -32 -23 -14 -35 13 -8 12
-10 -10 -13 -17 -2 -21 -13 -13 -35 7 -19 12 -14 40 44 18 36 30 70 26 77 -4
6 -3 8 2 5 6 -3 15 3 22 14 11 17 9 19 -13 19 -23 0 -25 -4 -25 -41z"/>
<path d="M3183 1283 c-29 -11 -10 -23 37 -23 49 0 66 12 34 24 -18 7 -53 7
-71 -1z"/>
<path d="M3392 1158 c3 -110 6 -133 18 -133 20 0 27 158 8 193 -9 18 -9 27 0
42 16 27 15 30 -8 30 -20 0 -20 -5 -18 -132z"/>
<path d="M3467 1283 c-17 -17 -2 -23 59 -23 40 0 63 -4 59 -10 -3 -5 -1 -19 5
-30 13 -25 43 -27 38 -2 -2 9 -9 16 -16 15 -6 -2 -9 3 -6 11 11 28 -115 64
-139 39z"/>
<path d="M3737 1274 c-15 -8 -34 -28 -42 -44 -25 -49 -15 -84 12 -41 10 15 10
21 0 24 -7 3 -5 6 5 6 9 1 23 10 32 22 12 18 22 20 70 17 46 -2 56 0 54 12 -4
21 -94 23 -131 4z"/>
<path d="M3127 1252 c-19 -21 -22 -38 -7 -47 18 -11 32 6 18 23 -11 13 -10 15
4 9 10 -3 20 -2 23 3 4 6 1 10 -5 10 -6 0 -8 5 -5 10 11 17 -11 11 -28 -8z"/>
<path d="M3290 1255 c7 -8 9 -15 4 -16 -5 0 1 -4 14 -9 12 -5 22 -15 22 -21 0
-8 -4 -8 -15 1 -8 7 -15 8 -15 2 0 -5 6 -14 13 -20 15 -13 20 -102 8 -136 -8
-18 -6 -26 5 -30 12 -4 14 11 14 93 0 84 -3 102 -21 125 -11 14 -25 26 -31 26
-6 0 -6 -6 2 -15z"/>
<path d="M3883 1250 c-1 -16 2 -20 17 -15 17 6 19 3 14 -25 -6 -25 -4 -29 10
-24 23 9 20 37 -7 62 -29 27 -32 27 -34 2z"/>
<path d="M3430 1239 c0 -5 5 -7 10 -4 6 3 10 8 10 11 0 2 -4 4 -10 4 -5 0 -10
-5 -10 -11z"/>
<path d="M2733 1208 c-7 -9 1 -36 26 -88 49 -102 50 -104 67 -89 19 16 18 40
-1 32 -21 -7 -44 24 -45 61 0 33 -20 96 -31 96 -4 0 -11 -6 -16 -12z m32 -38
c3 -5 1 -10 -4 -10 -6 0 -11 5 -11 10 0 6 2 10 4 10 3 0 8 -4 11 -10z"/>
<path d="M2896 1204 c-9 -24 -7 -28 9 -14 17 14 20 30 6 30 -5 0 -12 -7 -15
-16z"/>
<path d="M2240 1201 c0 -10 24 -21 46 -21 8 0 14 7 14 15 0 10 -10 15 -30 15
-16 0 -30 -4 -30 -9z"/>
<path d="M3725 1170 c-3 -5 -3 -10 2 -11 69 -4 223 -4 223 1 0 17 -215 27
-225 10z"/>
<path d="M3128 1150 c-21 -13 -22 -84 -2 -105 16 -15 98 -18 142 -5 20 6 22 9
8 9 -16 1 -17 4 -8 13 7 7 12 16 12 20 0 4 -9 -1 -20 -12 -15 -15 -33 -20 -72
-20 l-53 0 0 45 c0 34 3 45 15 44 49 -4 130 2 130 11 0 13 -130 13 -152 0z"/>
<path d="M3680 1131 c0 -28 49 -101 50 -75 0 6 -7 17 -15 24 -8 7 -15 18 -15
24 1 15 39 -35 40 -51 0 -16 62 -27 108 -20 20 4 47 18 61 32 l26 27 -25 -4
c-17 -2 -24 -8 -22 -20 2 -14 -8 -16 -66 -15 l-68 0 -33 54 c-19 29 -35 53
-37 53 -2 0 -4 -13 -4 -29z"/>
<path d="M1490 1135 c0 -8 32 -58 48 -74 12 -12 15 -12 23 0 7 12 9 11 9 -2 0
-9 7 -20 16 -23 20 -8 112 -8 142 0 45 13 20 20 -57 18 -75 -3 -79 -2 -106 26
-15 16 -32 27 -37 24 -4 -3 -8 0 -8 5 0 6 5 11 11 11 5 0 7 5 4 10 -6 10 -45
14 -45 5z"/>
<path d="M3290 1114 c0 -8 5 -12 10 -9 6 3 10 10 10 16 0 5 -4 9 -10 9 -5 0
-10 -7 -10 -16z"/>
<path d="M2868 1093 c7 -3 16 -2 19 1 4 3 -2 6 -13 5 -11 0 -14 -3 -6 -6z"/>
<path d="M2939 1073 c-10 -27 -11 -27 -25 -9 -16 23 -19 4 -3 -25 8 -16 13
-18 25 -9 7 7 12 16 9 20 -3 4 2 13 10 20 17 14 20 30 5 30 -6 0 -15 -12 -21
-27z"/>
</g>
</svg>
